<svg xmlns="http://www.w3.org/2000/svg" xmlns:xlink="http://www.w3.org/1999/xlink" width="100" zoomAndPan="magnify" viewBox="0 0 75 74.999997" height="100" preserveAspectRatio="xMidYMid meet" version="1.0"><defs><clipPath id="a74288e3a0"><path d="M 16.085938 7.5 L 58.835938 7.5 L 58.835938 67.5 L 16.085938 67.5 Z M 16.085938 7.5 " clip-rule="nonzero"/></clipPath></defs><g clip-path="url(#a74288e3a0)"><path fill="#ffffff" d="M 37.496094 53.199219 C 38.527344 53.199219 39.546875 53.097656 40.558594 52.894531 C 41.570312 52.691406 42.550781 52.394531 43.5 51.996094 C 44.453125 51.601562 45.355469 51.117188 46.214844 50.546875 C 47.070312 49.972656 47.863281 49.324219 48.589844 48.59375 C 49.320312 47.863281 49.972656 47.074219 50.542969 46.214844 C 51.117188 45.359375 51.601562 44.457031 51.996094 43.503906 C 52.390625 42.550781 52.691406 41.570312 52.890625 40.5625 C 53.09375 39.550781 53.195312 38.53125 53.199219 37.5 L 53.199219 23.226562 C 53.199219 22.195312 53.097656 21.175781 52.898438 20.164062 C 52.695312 19.152344 52.398438 18.171875 52.003906 17.21875 C 51.609375 16.265625 51.125 15.359375 50.550781 14.503906 C 49.980469 13.648438 49.328125 12.851562 48.601562 12.125 C 47.871094 11.394531 47.078125 10.746094 46.21875 10.171875 C 45.363281 9.597656 44.457031 9.117188 43.507812 8.722656 C 42.554688 8.328125 41.570312 8.027344 40.5625 7.828125 C 39.550781 7.625 38.527344 7.527344 37.496094 7.527344 C 36.464844 7.527344 35.445312 7.625 34.433594 7.828125 C 33.421875 8.027344 32.441406 8.328125 31.488281 8.722656 C 30.535156 9.117188 29.632812 9.597656 28.773438 10.171875 C 27.917969 10.746094 27.125 11.394531 26.394531 12.125 C 25.667969 12.851562 25.015625 13.648438 24.441406 14.503906 C 23.871094 15.359375 23.386719 16.265625 22.992188 17.21875 C 22.597656 18.171875 22.300781 19.152344 22.097656 20.164062 C 21.898438 21.175781 21.796875 22.195312 21.796875 23.226562 L 21.796875 37.5 C 21.796875 38.53125 21.902344 39.550781 22.101562 40.5625 C 22.304688 41.570312 22.605469 42.550781 23 43.503906 C 23.394531 44.457031 23.878906 45.359375 24.453125 46.214844 C 25.023438 47.074219 25.675781 47.863281 26.402344 48.59375 C 27.132812 49.324219 27.925781 49.972656 28.78125 50.546875 C 29.636719 51.117188 30.542969 51.601562 31.492188 51.996094 C 32.445312 52.394531 33.425781 52.691406 34.4375 52.894531 C 35.445312 53.097656 36.46875 53.199219 37.496094 53.199219 Z M 24.652344 23.226562 C 24.652344 22.382812 24.734375 21.546875 24.898438 20.71875 C 25.0625 19.894531 25.304688 19.089844 25.628906 18.3125 C 25.953125 17.53125 26.347656 16.789062 26.816406 16.089844 C 27.285156 15.386719 27.816406 14.738281 28.414062 14.144531 C 29.011719 13.546875 29.660156 13.015625 30.359375 12.546875 C 31.0625 12.078125 31.800781 11.679688 32.582031 11.359375 C 33.359375 11.035156 34.164062 10.792969 34.992188 10.628906 C 35.820312 10.460938 36.652344 10.378906 37.496094 10.378906 C 38.339844 10.378906 39.175781 10.460938 40.003906 10.628906 C 40.832031 10.792969 41.632812 11.035156 42.414062 11.359375 C 43.191406 11.679688 43.933594 12.078125 44.632812 12.546875 C 45.335938 13.015625 45.984375 13.546875 46.582031 14.144531 C 47.175781 14.738281 47.710938 15.386719 48.179688 16.089844 C 48.648438 16.789062 49.042969 17.53125 49.367188 18.3125 C 49.6875 19.089844 49.933594 19.894531 50.097656 20.71875 C 50.261719 21.546875 50.34375 22.382812 50.34375 23.226562 L 50.34375 37.5 C 50.34375 38.34375 50.261719 39.179688 50.097656 40.007812 C 49.933594 40.832031 49.6875 41.636719 49.367188 42.414062 C 49.042969 43.195312 48.648438 43.9375 48.179688 44.636719 C 47.710938 45.339844 47.175781 45.988281 46.582031 46.582031 C 45.984375 47.179688 45.335938 47.710938 44.632812 48.179688 C 43.933594 48.648438 43.191406 49.046875 42.414062 49.367188 C 41.632812 49.691406 40.832031 49.933594 40.003906 50.097656 C 39.175781 50.265625 38.339844 50.347656 37.496094 50.347656 C 36.652344 50.347656 35.820312 50.265625 34.992188 50.097656 C 34.164062 49.933594 33.359375 49.691406 32.582031 49.367188 C 31.800781 49.046875 31.0625 48.648438 30.359375 48.179688 C 29.660156 47.710938 29.011719 47.179688 28.414062 46.582031 C 27.816406 45.988281 27.285156 45.339844 26.816406 44.636719 C 26.347656 43.9375 25.953125 43.195312 25.628906 42.414062 C 25.304688 41.636719 25.0625 40.832031 24.898438 40.007812 C 24.734375 39.179688 24.652344 38.34375 24.652344 37.5 Z M 38.925781 58.910156 L 38.925781 64.621094 L 46.0625 64.621094 C 46.25 64.621094 46.433594 64.65625 46.609375 64.726562 C 46.78125 64.800781 46.9375 64.902344 47.070312 65.039062 C 47.203125 65.171875 47.308594 65.324219 47.378906 65.5 C 47.453125 65.675781 47.488281 65.859375 47.488281 66.046875 C 47.488281 66.234375 47.453125 66.417969 47.378906 66.59375 C 47.308594 66.769531 47.203125 66.921875 47.070312 67.054688 C 46.9375 67.191406 46.78125 67.292969 46.609375 67.367188 C 46.433594 67.4375 46.25 67.472656 46.0625 67.472656 L 28.933594 67.472656 C 28.746094 67.472656 28.5625 67.4375 28.386719 67.367188 C 28.210938 67.292969 28.058594 67.191406 27.925781 67.054688 C 27.789062 66.921875 27.6875 66.769531 27.613281 66.59375 C 27.542969 66.417969 27.507812 66.234375 27.507812 66.046875 C 27.507812 65.859375 27.542969 65.675781 27.613281 65.5 C 27.6875 65.324219 27.789062 65.171875 27.925781 65.039062 C 28.058594 64.902344 28.210938 64.800781 28.386719 64.726562 C 28.5625 64.65625 28.746094 64.621094 28.933594 64.621094 L 36.070312 64.621094 L 36.070312 58.910156 C 35.398438 58.867188 34.730469 58.789062 34.066406 58.683594 C 33.402344 58.578125 32.746094 58.4375 32.09375 58.269531 C 31.445312 58.101562 30.800781 57.902344 30.171875 57.671875 C 29.539062 57.441406 28.917969 57.183594 28.308594 56.894531 C 27.703125 56.605469 27.109375 56.289062 26.53125 55.945312 C 25.953125 55.601562 25.394531 55.230469 24.851562 54.835938 C 24.308594 54.4375 23.785156 54.015625 23.28125 53.570312 C 22.777344 53.125 22.296875 52.65625 21.835938 52.164062 C 21.378906 51.671875 20.945312 51.160156 20.535156 50.625 C 20.121094 50.09375 19.738281 49.542969 19.378906 48.972656 C 19.019531 48.40625 18.691406 47.820312 18.386719 47.21875 C 18.082031 46.621094 17.808594 46.007812 17.5625 45.378906 C 17.316406 44.753906 17.101562 44.117188 16.917969 43.472656 C 16.730469 42.824219 16.578125 42.171875 16.453125 41.511719 C 16.328125 40.847656 16.238281 40.183594 16.175781 39.511719 C 16.113281 38.84375 16.085938 38.171875 16.085938 37.5 C 16.085938 37.3125 16.125 37.128906 16.195312 36.953125 C 16.269531 36.777344 16.371094 36.625 16.503906 36.492188 C 16.640625 36.355469 16.792969 36.253906 16.96875 36.179688 C 17.144531 36.109375 17.324219 36.074219 17.515625 36.074219 C 17.703125 36.074219 17.886719 36.109375 18.0625 36.179688 C 18.234375 36.253906 18.390625 36.355469 18.523438 36.492188 C 18.65625 36.625 18.761719 36.777344 18.832031 36.953125 C 18.90625 37.128906 18.941406 37.3125 18.941406 37.5 C 18.941406 38.109375 18.972656 38.714844 19.03125 39.320312 C 19.089844 39.921875 19.179688 40.523438 19.296875 41.121094 C 19.417969 41.714844 19.566406 42.304688 19.742188 42.886719 C 19.917969 43.46875 20.121094 44.039062 20.355469 44.601562 C 20.585938 45.164062 20.847656 45.710938 21.132812 46.246094 C 21.417969 46.78125 21.730469 47.304688 22.070312 47.808594 C 22.40625 48.3125 22.769531 48.800781 23.152344 49.269531 C 23.539062 49.742188 23.945312 50.191406 24.378906 50.621094 C 24.808594 51.050781 25.257812 51.457031 25.726562 51.84375 C 26.195312 52.230469 26.683594 52.589844 27.1875 52.929688 C 27.695312 53.265625 28.214844 53.578125 28.75 53.863281 C 29.285156 54.152344 29.835938 54.410156 30.398438 54.644531 C 30.957031 54.875 31.53125 55.078125 32.109375 55.257812 C 32.691406 55.433594 33.28125 55.582031 33.878906 55.699219 C 34.472656 55.816406 35.074219 55.90625 35.679688 55.964844 C 36.285156 56.027344 36.890625 56.054688 37.496094 56.054688 C 38.105469 56.054688 38.710938 56.027344 39.316406 55.964844 C 39.921875 55.90625 40.523438 55.816406 41.117188 55.699219 C 41.714844 55.582031 42.300781 55.433594 42.882812 55.257812 C 43.464844 55.078125 44.035156 54.875 44.597656 54.644531 C 45.160156 54.410156 45.707031 54.152344 46.246094 53.863281 C 46.78125 53.578125 47.300781 53.265625 47.804688 52.929688 C 48.3125 52.589844 48.800781 52.230469 49.269531 51.84375 C 49.738281 51.457031 50.1875 51.050781 50.617188 50.621094 C 51.046875 50.191406 51.457031 49.742188 51.839844 49.269531 C 52.226562 48.800781 52.589844 48.3125 52.925781 47.808594 C 53.261719 47.304688 53.574219 46.78125 53.863281 46.246094 C 54.148438 45.710938 54.40625 45.164062 54.640625 44.601562 C 54.875 44.039062 55.078125 43.46875 55.253906 42.886719 C 55.429688 42.304688 55.578125 41.714844 55.695312 41.121094 C 55.816406 40.523438 55.902344 39.921875 55.964844 39.320312 C 56.023438 38.714844 56.054688 38.109375 56.054688 37.5 C 56.054688 37.3125 56.089844 37.128906 56.160156 36.953125 C 56.234375 36.777344 56.335938 36.625 56.472656 36.492188 C 56.605469 36.355469 56.757812 36.253906 56.933594 36.179688 C 57.109375 36.109375 57.292969 36.074219 57.480469 36.074219 C 57.667969 36.074219 57.851562 36.109375 58.027344 36.179688 C 58.203125 36.253906 58.355469 36.355469 58.488281 36.492188 C 58.625 36.625 58.726562 36.777344 58.800781 36.953125 C 58.871094 37.128906 58.90625 37.3125 58.90625 37.5 C 58.910156 38.171875 58.878906 38.84375 58.820312 39.511719 C 58.757812 40.183594 58.667969 40.847656 58.542969 41.511719 C 58.417969 42.171875 58.265625 42.824219 58.078125 43.472656 C 57.894531 44.117188 57.675781 44.753906 57.433594 45.378906 C 57.1875 46.007812 56.910156 46.621094 56.609375 47.21875 C 56.304688 47.820312 55.972656 48.40625 55.617188 48.972656 C 55.257812 49.542969 54.871094 50.09375 54.460938 50.625 C 54.050781 51.160156 53.617188 51.671875 53.15625 52.164062 C 52.699219 52.65625 52.21875 53.125 51.714844 53.570312 C 51.210938 54.015625 50.6875 54.4375 50.144531 54.835938 C 49.601562 55.230469 49.042969 55.601562 48.464844 55.945312 C 47.886719 56.289062 47.292969 56.605469 46.683594 56.894531 C 46.078125 57.183594 45.457031 57.441406 44.824219 57.671875 C 44.191406 57.902344 43.550781 58.101562 42.898438 58.269531 C 42.25 58.4375 41.59375 58.578125 40.929688 58.683594 C 40.265625 58.789062 39.597656 58.867188 38.925781 58.910156 Z M 38.925781 58.910156 " fill-opacity="1" fill-rule="nonzero"/></g></svg>